<svg xmlns="http://www.w3.org/2000/svg" viewBox="0 0 64 64" role="img" aria-labelledby="title desc">
  <title id="title">Grill on point</title>
  <desc id="desc">A bright blue icon showing a focused target inside a speech bubble.</desc>
  <defs>
    <linearGradient id="blue" x1="10" y1="6" x2="54" y2="58" gradientUnits="userSpaceOnUse">
      <stop stop-color="#38BDF8"/>
      <stop offset="1" stop-color="#0284C7"/>
    </linearGradient>
  </defs>
  <rect x="4" y="4" width="56" height="56" rx="16" fill="url(#blue)"/>
  <rect x="8" y="8" width="48" height="20" rx="12" fill="#FFFFFF" fill-opacity=".13"/>
  <g fill="none" stroke="#082F49" stroke-linecap="round" stroke-linejoin="round" stroke-width="3.6">
    <path d="M17 17h30a7 7 0 0 1 7 7v14a7 7 0 0 1-7 7H33l-9 7v-7h-7a7 7 0 0 1-7-7V24a7 7 0 0 1 7-7Z"/>
    <circle cx="36" cy="31" r="7"/>
    <path d="M36 19v5M36 38v5M24 31h5M43 31h5"/>
    <circle cx="36" cy="31" r="2.3" fill="#0EA5E9" stroke="none"/>
  </g>
</svg>
